<?xml version="1.0" encoding="utf-8"?>
<!-- Generator: Adobe Illustrator 23.1.0, SVG Export Plug-In . SVG Version: 6.00 Build 0)  -->
<svg version="1.1" id="圖層_1" focusable="false" xmlns="http://www.w3.org/2000/svg" xmlns:xlink="http://www.w3.org/1999/xlink"
	 x="0px" y="0px" viewBox="0 0 448 512" style="enable-background:new 0 0 448 512;" xml:space="preserve">
<style type="text/css">
	.st0{fill:#0E2EFF;}
</style>
<path class="st0" d="M236.6,240h-25.1c-1.9,0-3.4,1.5-3.4,3.4v25.1c0,1.9,1.5,3.4,3.4,3.4h9.8v-10.9h-4.5V256h4.5v-3.9
	c0-4.4,2.6-6.9,6.7-6.9c1.9,0,4,0.3,4,0.3v4.4h-2.2c-2.2,0-2.9,1.4-2.9,2.8v3.3h4.9l-0.8,5.1h-4.1V272h9.8c1.9,0,3.4-1.5,3.4-3.4
	v-25.1C240,241.5,238.5,240,236.6,240z"/>
</svg>
